<svg width="523" height="98" viewBox="0 0 523 98" fill="none" xmlns="http://www.w3.org/2000/svg">
<path d="M0 92.5C7.06785 85.657 14.6569 79.3367 22.6809 73.6301C92.0543 22.6409 187.148 32.3211 261.693 67.4547C266.303 69.5349 270.842 71.4978 275.31 73.347C352.43 108.905 468.455 114.027 511.826 27.5278C516.424 18.7962 520.074 9.51382 522.398 0C520.01 9.49759 516.302 18.7478 511.658 27.4387C467.813 113.422 352.725 107.831 275.693 72.423C271.235 70.5779 266.705 68.62 262.103 66.5454C187.405 31.323 91.7036 21.9648 22.5703 73.4756C14.5734 79.2366 7.02131 85.6092 0 92.5Z" fill="url(#paint0_linear_104_299)"/>
<defs>
<linearGradient id="paint0_linear_104_299" x1="-38.1016" y1="72.75" x2="313.398" y2="64" gradientUnits="userSpaceOnUse">
<stop stop-color="#16FF88"/>
<stop offset="1" stop-color="#006833"/>
</linearGradient>
</defs>
</svg>
